<svg xmlns="http://www.w3.org/2000/svg" width="560" height="480" viewBox="0 0 560 480">
  <defs>
    <linearGradient id="bg" x1="0%" y1="0%" x2="100%" y2="100%">
      <stop offset="0%" style="stop-color:#2a2d3a"/>
      <stop offset="100%" style="stop-color:#232636"/>
    </linearGradient>
  </defs>
  <rect width="560" height="480" fill="url(#bg)" rx="16"/>
  <rect x="24" y="24" width="512" height="48" rx="8" fill="#2f3245"/>
  <circle cx="52" cy="48" r="12" fill="#8b5cf6"/>
  <rect x="130" y="100" width="300" height="280" rx="12" fill="#2f3245" stroke="#3f4358" stroke-width="1"/>
  <rect x="154" y="124" width="252" height="32" rx="6" fill="#363a4f"/>
  <circle cx="174" cy="140" r="8" fill="#8b5cf6"/>
  <rect x="190" y="134" width="100" height="12" rx="3" fill="#8b5cf6" opacity="0.3"/>
  <rect x="154" y="172" width="252" height="1" fill="#3f4358"/>
  <rect x="154" y="188" width="180" height="10" rx="3" fill="#8b90a8"/>
  <rect x="154" y="208" width="220" height="10" rx="3" fill="#3f4358"/>
  <rect x="154" y="228" width="160" height="10" rx="3" fill="#3f4358"/>
  <rect x="154" y="260" width="252" height="1" fill="#3f4358"/>
  <rect x="154" y="276" width="200" height="10" rx="3" fill="#8b90a8"/>
  <rect x="154" y="296" width="240" height="10" rx="3" fill="#3f4358"/>
  <rect x="154" y="328" width="252" height="36" rx="8" fill="#8b5cf6"/>
  <text x="280" y="352" text-anchor="middle" fill="#ffffff" font-family="system-ui,sans-serif" font-size="13" font-weight="600">Open in Launchpad</text>
  <text x="280" y="430" text-anchor="middle" fill="#8b90a8" font-family="system-ui,sans-serif" font-size="14">Replace with dark-mode screenshot</text>
</svg>